<svg xmlns="http://www.w3.org/2000/svg" xmlns:xlink="http://www.w3.org/1999/xlink" width="192" zoomAndPan="magnify" viewBox="0 0 144 179.999997" height="240" preserveAspectRatio="xMidYMid meet" version="1.0"><defs><clipPath id="24d34c89c0"><path d="M 4.5 147.457031 L 57.894531 147.457031 L 57.894531 180 L 4.5 180 Z M 4.5 147.457031 " clip-rule="nonzero"/></clipPath><clipPath id="672d257f8c"><path d="M 35.101562 190.515625 C 22.5 187.929688 16.707031 186.074219 13.894531 184.5 C 12.207031 183.542969 11.304688 182.699219 10.179688 181.574219 C 9.113281 180.507812 8.101562 179.210938 7.3125 177.917969 C 6.523438 176.570312 5.851562 175.105469 5.398438 173.640625 C 4.953125 172.179688 4.671875 170.546875 4.554688 169.03125 C 4.445312 167.453125 4.554688 165.882812 4.835938 164.359375 C 5.117188 162.84375 5.625 161.324219 6.242188 159.917969 C 6.863281 158.453125 7.707031 157.105469 8.664062 155.867188 C 9.617188 154.6875 10.742188 153.5625 11.984375 152.605469 C 13.21875 151.648438 14.570312 150.804688 15.976562 150.1875 C 17.382812 149.511719 18.957031 149.0625 20.476562 148.78125 C 21.992188 148.5 23.570312 148.386719 25.140625 148.5 C 26.664062 148.609375 28.234375 148.890625 29.757812 149.34375 C 31.21875 149.851562 33.976562 151.3125 33.976562 151.3125 C 33.976562 151.257812 25.984375 148.164062 26.101562 147.65625 C 26.210938 147.261719 30.375 147.542969 32.398438 147.992188 C 34.421875 148.386719 36.449219 149.230469 38.25 150.242188 C 40.046875 151.3125 41.734375 152.71875 43.085938 154.292969 C 44.4375 155.867188 45.617188 157.78125 46.40625 159.695312 C 47.136719 161.605469 47.640625 163.796875 47.757812 165.824219 C 47.921875 167.90625 47.699219 170.101562 47.136719 172.125 C 46.574219 174.148438 45.671875 176.117188 44.546875 177.859375 C 43.367188 179.605469 41.851562 181.179688 40.21875 182.476562 C 38.585938 183.710938 36.617188 184.78125 34.648438 185.453125 C 32.679688 186.132812 30.542969 186.523438 28.460938 186.523438 C 26.382812 186.523438 24.1875 186.1875 22.21875 185.570312 C 20.25 184.890625 18.28125 183.882812 16.648438 182.640625 C 14.960938 181.40625 13.445312 179.773438 12.265625 178.085938 C 11.082031 176.34375 10.125 174.375 9.5625 172.351562 C 9 170.382812 8.773438 168.1875 8.832031 166.105469 C 8.945312 164.023438 9.394531 161.886719 10.179688 159.917969 C 10.914062 158.007812 12.039062 156.09375 13.390625 154.515625 C 14.738281 152.945312 16.425781 151.480469 18.171875 150.414062 C 19.914062 149.289062 21.992188 148.5 24.015625 148.046875 C 26.042969 147.542969 28.234375 147.429688 30.320312 147.65625 C 32.34375 147.824219 34.480469 148.445312 36.390625 149.289062 C 38.304688 150.132812 40.105469 151.367188 41.625 152.773438 C 43.140625 154.234375 44.492188 155.980469 45.507812 157.78125 C 46.460938 159.636719 47.195312 161.71875 47.53125 163.742188 C 47.867188 165.824219 47.921875 168.015625 47.585938 170.042969 C 47.25 172.125 46.574219 174.203125 45.617188 176.0625 C 44.664062 177.917969 43.3125 179.664062 41.792969 181.070312 C 40.328125 182.53125 38.476562 183.765625 36.617188 184.667969 C 34.761719 185.570312 33.074219 186.1875 30.542969 186.414062 C 26.382812 186.75 17.328125 185.90625 13.894531 184.5 C 12.039062 183.710938 11.304688 182.699219 10.179688 181.574219 C 9.113281 180.507812 8.101562 179.210938 7.3125 177.917969 C 6.523438 176.570312 5.851562 175.105469 5.398438 173.640625 C 4.953125 172.179688 4.671875 170.546875 4.554688 169.03125 C 4.445312 167.511719 4.554688 165.882812 4.835938 164.359375 C 5.117188 162.84375 5.625 161.324219 6.242188 159.917969 C 6.863281 158.511719 7.707031 157.105469 8.664062 155.867188 C 9.617188 154.6875 10.742188 153.5625 11.984375 152.605469 C 13.21875 151.648438 14.570312 150.804688 15.976562 150.1875 C 17.382812 149.511719 18.957031 149.0625 20.476562 148.78125 C 21.992188 148.5 23.570312 148.386719 25.140625 148.5 C 26.664062 148.609375 28.292969 148.890625 29.757812 149.34375 C 31.164062 149.792969 31.949219 150.578125 33.695312 151.199219 C 36.789062 152.324219 43.761719 153.226562 46.796875 154.515625 C 48.542969 155.25 49.554688 155.980469 50.734375 156.9375 C 51.917969 157.890625 52.984375 159.015625 53.945312 160.199219 C 54.84375 161.4375 55.632812 162.789062 56.25 164.195312 C 56.867188 165.601562 57.320312 167.117188 57.601562 168.578125 C 57.824219 170.101562 57.882812 171.671875 57.765625 173.195312 C 57.710938 174.710938 57.375 176.230469 56.921875 177.695312 C 56.417969 179.15625 55.796875 180.5625 54.953125 181.855469 C 54.167969 183.148438 53.15625 184.386719 52.085938 185.453125 C 51.015625 186.523438 49.726562 187.480469 48.429688 188.265625 C 47.136719 189.054688 45.671875 189.671875 44.210938 190.070312 C 42.75 190.515625 41.171875 190.796875 39.65625 190.855469 C 38.136719 190.96875 35.101562 190.515625 35.101562 190.515625 " clip-rule="nonzero"/></clipPath><clipPath id="74830a5a6d"><path d="M 0 138.800781 L 56.25 138.800781 L 56.25 180 L 0 180 Z M 0 138.800781 " clip-rule="nonzero"/></clipPath><clipPath id="42cd105e4e"><path d="M 30.039062 183.65625 C 19.179688 180.335938 9.507812 179.605469 4.332031 179.265625 C 0.898438 179.042969 -1.574219 179.324219 -4.21875 179.101562 C -6.523438 178.875 -8.605469 178.648438 -10.632812 177.917969 C -12.65625 177.1875 -14.625 176.117188 -16.3125 174.765625 C -18 173.476562 -19.515625 171.789062 -20.699219 169.984375 C -21.882812 168.1875 -22.78125 166.105469 -23.34375 164.023438 C -23.90625 161.945312 -24.074219 159.695312 -23.960938 157.554688 C -23.792969 155.417969 -23.230469 153.226562 -22.445312 151.199219 C -21.601562 149.230469 -20.417969 147.320312 -18.953125 145.6875 C -17.546875 144.109375 -15.804688 142.648438 -13.949219 141.578125 C -12.09375 140.511719 -9.953125 139.667969 -7.875 139.273438 C -5.792969 138.824219 -3.484375 138.765625 -1.351562 139.046875 C 0.734375 139.273438 2.925781 139.949219 4.894531 140.851562 C 6.804688 141.804688 8.664062 143.101562 10.179688 144.617188 C 11.703125 146.136719 13.109375 147.9375 14.0625 149.851562 C 15.019531 151.761719 15.695312 153.953125 16.03125 156.039062 C 16.3125 158.171875 16.3125 160.480469 15.921875 162.5625 C 15.523438 164.699219 14.738281 166.835938 13.726562 168.695312 C 12.710938 170.546875 11.304688 172.351562 9.734375 173.8125 C 8.101562 175.273438 6.242188 176.511719 4.273438 177.355469 C 2.304688 178.257812 0.113281 178.820312 -2.023438 178.984375 C -4.164062 179.210938 -6.46875 179.042969 -8.546875 178.539062 C -10.632812 178.03125 -12.710938 177.1875 -14.511719 176.0625 C -16.367188 174.882812 -18.054688 173.417969 -19.40625 171.730469 C -20.757812 170.101562 -21.9375 168.132812 -22.667969 166.105469 C -23.453125 164.078125 -23.90625 161.886719 -23.960938 159.75 C -24.074219 157.609375 -23.792969 155.304688 -23.171875 153.28125 C -22.554688 151.199219 -21.542969 149.171875 -20.304688 147.429688 C -19.070312 145.6875 -17.492188 144.054688 -15.75 142.761719 C -14.0625 141.523438 -12.039062 140.453125 -9.953125 139.835938 C -7.929688 139.164062 -6.355469 138.9375 -3.542969 138.882812 C 1.742188 138.710938 12.148438 139.554688 19.351562 140.734375 C 25.875 141.804688 32.625 143.605469 37.796875 145.460938 C 41.734375 146.867188 45.5625 148.609375 47.980469 150.1875 C 49.5 151.199219 50.398438 152.101562 51.414062 153.28125 C 52.421875 154.40625 53.265625 155.699219 54 157.105469 C 54.671875 158.453125 55.234375 159.917969 55.574219 161.4375 C 55.96875 162.898438 56.136719 164.476562 56.136719 165.992188 C 56.078125 167.511719 55.914062 169.085938 55.515625 170.546875 C 55.125 172.070312 54.5625 173.53125 53.828125 174.882812 C 53.101562 176.230469 52.199219 177.523438 51.1875 178.648438 C 50.171875 179.773438 48.992188 180.84375 47.699219 181.6875 C 46.460938 182.53125 45.054688 183.261719 43.59375 183.765625 C 42.1875 184.328125 40.609375 184.667969 39.09375 184.835938 C 37.574219 185.007812 36 185.007812 34.480469 184.835938 C 32.960938 184.609375 30.039062 183.65625 30.039062 183.65625 " clip-rule="nonzero"/></clipPath><clipPath id="a1070dbbdf"><path d="M 0 128 L 58.386719 128 L 58.386719 180 L 0 180 Z M 0 128 " clip-rule="nonzero"/></clipPath><clipPath id="cfec7bc230"><path d="M -25.648438 174.898438 C -25.050781 166.425781 -24.449219 164.324219 -23.625 162.375 C -22.800781 160.425781 -21.226562 157.875 -20.476562 156.824219 C -20.101562 156.375 -19.800781 156.300781 -19.648438 156 C -19.5 155.699219 -19.5 155.476562 -19.5 155.175781 C -19.5 154.726562 -19.648438 154.199219 -19.574219 153.601562 C -19.5 152.773438 -19.050781 151.648438 -18.824219 150.675781 C -18.601562 149.625 -18.601562 148.5 -18.375 147.675781 C -18.148438 146.925781 -17.699219 146.25 -17.476562 145.726562 C -17.398438 145.351562 -17.398438 145.050781 -17.25 144.824219 C -17.175781 144.523438 -17.023438 144.449219 -16.800781 144.074219 C -16.273438 143.101562 -15.226562 139.125 -14.25 138.300781 C -13.726562 137.851562 -12.976562 138.074219 -12.675781 137.851562 C -12.449219 137.625 -12.523438 137.476562 -12.226562 137.175781 C -11.324219 136.199219 -7.648438 132.976562 -5.023438 131.550781 C -2.398438 130.125 0.675781 129.074219 3.601562 128.550781 C 6.523438 128.023438 10.425781 128.101562 12.75 128.476562 C 14.175781 128.625 14.851562 129.523438 16.050781 129.523438 C 17.550781 129.523438 18.75 128.023438 21.074219 128.101562 C 26.175781 128.175781 39.898438 130.425781 46.050781 136.199219 C 52.949219 142.875 59.25 158.773438 58.125 168.375 C 57.148438 177.148438 48.523438 189.226562 42.300781 192 C 37.648438 194.101562 31.949219 189.148438 27 189.976562 C 21.824219 190.875 15.898438 196.273438 11.925781 197.625 C 9.601562 198.375 8.101562 198.375 6.074219 198.675781 C 4.050781 198.898438 1.800781 199.273438 -0.300781 199.199219 C -2.398438 199.125 -4.574219 198.75 -6.601562 198.148438 C -8.625 197.550781 -10.648438 196.726562 -12.449219 195.675781 C -14.324219 194.625 -16.050781 193.273438 -17.550781 191.851562 C -19.125 190.351562 -20.476562 188.699219 -21.601562 186.898438 C -22.726562 185.101562 -23.699219 183.148438 -24.375 181.125 C -25.050781 179.101562 -25.648438 174.898438 -25.648438 174.898438 M 28.949219 189 C 34.125 189.226562 31.5 188.101562 30.523438 188.175781 C 29.851562 188.25 28.949219 189 28.949219 189 M -18.375 147.675781 C -18.375 147.601562 -18.375 147.601562 -18.375 147.675781 " clip-rule="nonzero"/></clipPath></defs><path fill="#d10024" d="M 53.210938 68.230469 C 53.886719 68.453125 54.5625 68.453125 55.125 68.453125 C 63.167969 68.453125 70.421875 68.734375 77.289062 69.46875 C 78.132812 69.578125 79.199219 69.636719 80.210938 69.636719 C 80.382812 69.636719 80.492188 69.636719 80.664062 69.636719 C 81.390625 69.636719 82.125 69.523438 83.136719 69.355469 C 83.476562 69.242188 83.8125 69.1875 84.375 69.015625 C 84.484375 68.960938 84.601562 68.90625 84.710938 68.851562 C 84.824219 68.792969 84.9375 68.734375 84.824219 68.734375 L 85.273438 68.625 C 86.734375 67.949219 87.976562 66.9375 88.648438 65.921875 C 90.167969 64.011719 90.507812 61.59375 90.789062 59.453125 L 92.417969 48.9375 L 92.476562 48.429688 C 92.8125 46.234375 93.203125 43.539062 90.789062 41.679688 L 90 41.117188 L 89.828125 41.0625 C 89.664062 40.949219 89.492188 40.890625 89.382812 40.890625 C 87.917969 40.386719 86.453125 40.445312 85.046875 40.5 L 84.824219 40.5 C 83.585938 40.5 82.292969 40.554688 81.226562 40.554688 L 80.546875 40.445312 C 80.324219 40.445312 80.101562 40.386719 79.875 40.328125 L 79.59375 40.328125 C 78.75 40.164062 78.355469 39.65625 78.1875 38.8125 C 78.132812 38.359375 78.074219 37.914062 78.015625 37.460938 L 77.851562 36.335938 C 77.570312 34.367188 77.230469 32.34375 76.949219 30.375 C 76.726562 28.914062 75.9375 27.617188 74.8125 26.71875 C 73.742188 25.820312 72.390625 25.367188 71.042969 25.421875 C 69.859375 25.480469 68.792969 25.984375 68.230469 26.71875 C 66.765625 28.351562 67.445312 30.542969 67.890625 32.0625 C 68.34375 33.695312 68.511719 35.15625 68.398438 36.617188 C 68.289062 38.078125 68.117188 38.867188 67.328125 39.824219 L 65.359375 42.074219 C 64.914062 42.578125 64.460938 43.085938 64.125 43.421875 C 63.953125 43.539062 63.789062 43.703125 63.671875 43.820312 C 63.449219 43.984375 63.226562 44.15625 62.945312 44.324219 L 55.070312 44.324219 C 52.929688 44.324219 51.242188 46.070312 51.242188 48.148438 L 51.242188 65.359375 C 51.242188 66.765625 52.03125 67.890625 53.210938 68.230469 Z M 53.492188 48.261719 C 53.492188 47.359375 54.226562 46.632812 55.125 46.632812 L 63.390625 46.632812 L 63.617188 46.515625 C 64.125 46.292969 64.574219 46.011719 65.078125 45.5625 C 65.136719 45.507812 65.25 45.390625 65.476562 45.226562 C 65.980469 44.71875 66.484375 44.15625 66.9375 43.648438 L 68.90625 41.398438 C 70.257812 39.824219 70.421875 38.417969 70.539062 36.898438 C 70.648438 35.15625 70.480469 33.46875 69.917969 31.445312 C 69.46875 30.039062 69.1875 28.96875 69.804688 28.292969 C 70.03125 28.011719 70.539062 27.84375 71.042969 27.789062 C 71.886719 27.789062 72.617188 28.011719 73.292969 28.574219 C 74.023438 29.195312 74.53125 29.980469 74.699219 30.882812 C 75.039062 32.851562 75.320312 34.820312 75.601562 36.789062 L 75.765625 37.914062 C 75.824219 38.359375 75.882812 38.757812 75.9375 39.261719 C 76.21875 41.0625 77.34375 42.242188 78.976562 42.636719 C 79.257812 42.75 79.480469 42.75 79.480469 42.695312 C 79.761719 42.75 79.984375 42.75 80.265625 42.804688 L 81.109375 42.917969 C 82.351562 42.859375 83.585938 42.859375 84.882812 42.859375 L 85.164062 42.859375 C 86.398438 42.804688 87.523438 42.804688 88.761719 43.140625 L 89.492188 43.539062 C 90.84375 44.546875 90.671875 45.953125 90.335938 48.203125 L 88.820312 57.992188 L 88.648438 59.230469 C 88.367188 61.199219 88.085938 63.167969 86.90625 64.6875 C 86.453125 65.359375 85.554688 66.09375 84.542969 66.601562 C 84.203125 66.65625 83.921875 66.824219 83.585938 66.992188 C 83.25 67.105469 82.96875 67.164062 82.6875 67.273438 C 81.953125 67.445312 81.335938 67.5 80.71875 67.5 C 79.648438 67.5 78.578125 67.445312 77.570312 67.328125 C 70.984375 66.65625 64.011719 66.320312 56.417969 66.320312 C 55.574219 66.320312 54.617188 66.429688 54 66.203125 C 53.773438 66.148438 53.546875 65.8125 53.546875 65.53125 L 53.546875 48.261719 Z M 53.492188 48.261719 " fill-opacity="1" fill-rule="nonzero"/><path fill="#d10024" d="M 45.449219 90.054688 C 44.042969 89.492188 42.414062 90.226562 41.851562 91.6875 L 29.640625 123.917969 C 29.304688 124.761719 29.417969 125.71875 29.921875 126.449219 C 30.429688 127.179688 31.273438 127.632812 32.171875 127.632812 C 36.84375 127.6875 41.679688 127.070312 46.914062 125.828125 C 49.554688 130.105469 52.59375 133.761719 55.914062 136.632812 C 56.417969 137.078125 57.09375 137.304688 57.710938 137.304688 C 57.9375 137.304688 58.164062 137.25 58.386719 137.195312 C 59.289062 136.96875 59.960938 136.351562 60.296875 135.507812 L 74.078125 99.109375 C 74.640625 97.648438 73.914062 96.074219 72.449219 95.511719 C 71.042969 94.949219 69.414062 95.679688 68.851562 97.140625 L 56.585938 129.601562 C 54.617188 127.460938 52.761719 124.929688 51.074219 122.0625 C 50.117188 120.484375 48.320312 119.757812 46.515625 120.203125 C 42.859375 121.164062 39.429688 121.726562 36.167969 122.007812 L 46.914062 93.65625 C 47.585938 92.195312 46.855469 90.5625 45.449219 90.054688 Z M 45.449219 90.054688 " fill-opacity="1" fill-rule="nonzero"/><path fill="#d10024" d="M 83.640625 140.398438 C 83.980469 141.242188 84.65625 141.859375 85.554688 142.085938 C 85.78125 142.140625 86.007812 142.199219 86.230469 142.199219 C 86.90625 142.199219 87.523438 141.976562 88.03125 141.523438 C 91.351562 138.65625 94.386719 135 97.03125 130.726562 C 102.320312 131.960938 107.15625 132.578125 111.765625 132.523438 C 112.667969 132.523438 113.511719 132.074219 114.015625 131.34375 C 114.523438 130.609375 114.636719 129.65625 114.296875 128.8125 L 100.234375 91.6875 C 99.671875 90.226562 98.101562 89.546875 96.636719 90.054688 C 95.171875 90.617188 94.5 92.195312 95.007812 93.65625 L 107.546875 126.84375 C 104.289062 126.5625 100.796875 126 97.199219 125.101562 C 95.453125 124.648438 93.601562 125.4375 92.640625 126.953125 C 90.953125 129.765625 89.101562 132.296875 87.132812 134.492188 L 79.199219 113.511719 C 78.636719 112.046875 77.0625 111.375 75.601562 111.882812 C 74.136719 112.445312 73.460938 114.015625 73.96875 115.480469 Z M 83.640625 140.398438 " fill-opacity="1" fill-rule="nonzero"/><path fill="#d10024" d="M 28.125 37.632812 C 26.492188 38.8125 25.425781 40.609375 25.203125 42.636719 C 24.976562 44.664062 25.59375 46.632812 26.890625 48.148438 C 28.460938 49.949219 29.304688 52.257812 29.359375 54.617188 C 29.359375 56.25 29.023438 57.765625 28.351562 59.171875 C 27.453125 60.976562 27.394531 63.109375 28.125 64.96875 C 28.855469 66.824219 30.375 68.34375 32.230469 69.074219 C 34.421875 69.917969 36.28125 71.546875 37.460938 73.632812 C 38.25 75.039062 38.640625 76.554688 38.757812 78.132812 C 38.8125 80.15625 39.765625 82.011719 41.289062 83.304688 C 42.804688 84.601562 44.886719 85.21875 46.855469 84.992188 C 49.21875 84.710938 51.578125 85.273438 53.546875 86.511719 C 54.898438 87.355469 56.023438 88.539062 56.8125 89.886719 C 57.824219 91.632812 59.511719 92.867188 61.480469 93.261719 C 61.984375 93.375 62.492188 93.429688 63 93.429688 C 64.460938 93.429688 65.980469 92.980469 67.164062 92.078125 C 68.625 91.070312 70.257812 90.449219 72 90.28125 C 73.742188 90.449219 75.429688 91.070312 76.835938 92.078125 C 78.46875 93.261719 80.546875 93.65625 82.515625 93.261719 C 84.484375 92.8125 86.171875 91.632812 87.1875 89.886719 C 87.976562 88.539062 89.101562 87.414062 90.449219 86.511719 C 92.417969 85.21875 94.835938 84.710938 97.140625 84.992188 C 99.167969 85.273438 101.195312 84.65625 102.710938 83.304688 C 104.230469 82.011719 105.1875 80.101562 105.242188 78.074219 C 105.296875 76.5 105.75 74.980469 106.539062 73.574219 C 107.71875 71.492188 109.515625 69.859375 111.765625 69.015625 C 113.625 68.289062 115.140625 66.824219 115.875 64.914062 C 116.605469 63.054688 116.546875 60.917969 115.648438 59.117188 C 114.976562 57.710938 114.636719 56.195312 114.636719 54.5625 C 114.695312 52.199219 115.539062 49.890625 117.109375 48.09375 C 118.40625 46.574219 119.023438 44.546875 118.796875 42.578125 C 118.574219 40.554688 117.507812 38.757812 115.875 37.574219 C 114.578125 36.617188 113.570312 35.4375 112.835938 34.03125 C 111.765625 31.949219 111.429688 29.476562 111.9375 27.167969 C 112.386719 25.199219 111.9375 23.117188 110.8125 21.484375 C 109.632812 19.855469 107.828125 18.730469 105.859375 18.507812 C 104.289062 18.28125 102.824219 17.71875 101.476562 16.820312 C 99.507812 15.46875 98.101562 13.5 97.421875 11.195312 C 96.859375 9.28125 95.570312 7.648438 93.765625 6.75 C 91.96875 5.851562 89.828125 5.738281 87.976562 6.414062 C 86.511719 6.976562 84.9375 7.140625 83.359375 6.976562 C 81 6.695312 78.804688 5.625 77.171875 3.9375 C 75.824219 2.53125 74.023438 1.800781 72.054688 1.742188 C 70.140625 1.742188 68.34375 2.53125 66.992188 3.9375 C 65.359375 5.625 63.167969 6.695312 60.804688 6.976562 C 59.230469 7.140625 57.65625 6.976562 56.195312 6.414062 C 54.28125 5.679688 52.199219 5.792969 50.398438 6.75 C 48.601562 7.648438 47.25 9.28125 46.742188 11.195312 C 46.125 13.445312 44.664062 15.46875 42.695312 16.820312 C 41.398438 17.71875 39.882812 18.28125 38.304688 18.507812 C 36.335938 18.789062 34.539062 19.855469 33.355469 21.542969 C 32.171875 23.171875 31.78125 25.257812 32.230469 27.226562 C 32.734375 29.53125 32.398438 31.949219 31.328125 34.03125 C 30.429688 35.492188 29.417969 36.671875 28.125 37.632812 Z M 36.109375 36.617188 C 37.796875 33.355469 38.304688 29.585938 37.515625 26.042969 C 37.40625 25.421875 37.632812 24.976562 37.796875 24.75 C 37.96875 24.523438 38.304688 24.132812 38.921875 24.074219 C 41.398438 23.734375 43.648438 22.890625 45.671875 21.484375 C 48.710938 19.40625 50.90625 16.3125 51.917969 12.765625 C 52.085938 12.203125 52.539062 11.867188 52.761719 11.757812 C 52.984375 11.640625 53.492188 11.476562 54.109375 11.699219 C 56.417969 12.542969 58.835938 12.882812 61.3125 12.601562 C 64.96875 12.203125 68.398438 10.519531 70.929688 7.875 C 71.324219 7.480469 71.828125 7.367188 72 7.367188 C 72.226562 7.367188 72.730469 7.421875 73.125 7.820312 C 75.65625 10.460938 79.085938 12.148438 82.742188 12.542969 C 85.21875 12.824219 87.636719 12.484375 89.945312 11.640625 C 90.507812 11.417969 91.011719 11.585938 91.292969 11.699219 C 91.515625 11.8125 91.96875 12.09375 92.136719 12.710938 C 93.148438 16.257812 95.34375 19.351562 98.382812 21.429688 C 100.40625 22.835938 102.710938 23.679688 105.132812 24.015625 C 105.75 24.074219 106.085938 24.46875 106.257812 24.695312 C 106.421875 24.917969 106.648438 25.367188 106.539062 25.984375 C 105.75 29.53125 106.257812 33.296875 107.945312 36.5625 C 109.070312 38.757812 110.699219 40.609375 112.667969 42.074219 C 113.171875 42.46875 113.289062 42.976562 113.34375 43.257812 C 113.398438 43.539062 113.34375 44.042969 112.949219 44.492188 C 110.53125 47.25 109.179688 50.851562 109.125 54.507812 C 109.070312 56.980469 109.632812 59.398438 110.699219 61.59375 C 110.980469 62.15625 110.867188 62.664062 110.757812 62.945312 C 110.640625 63.167969 110.417969 63.671875 109.855469 63.898438 C 106.421875 65.195312 103.554688 67.726562 101.757812 70.929688 C 100.574219 73.070312 99.898438 75.484375 99.789062 77.90625 C 99.789062 78.523438 99.390625 78.917969 99.226562 79.085938 C 99 79.257812 98.546875 79.539062 97.929688 79.480469 C 94.328125 79.03125 90.617188 79.875 87.523438 81.84375 C 85.445312 83.195312 83.757812 84.9375 82.460938 87.074219 C 82.125 87.578125 81.671875 87.804688 81.390625 87.859375 C 81.109375 87.917969 80.605469 87.976562 80.042969 87.578125 C 77.734375 85.949219 75.039062 84.9375 72.226562 84.765625 C 72.054688 84.765625 71.945312 84.765625 71.828125 84.765625 C 69.015625 84.992188 66.320312 85.949219 64.011719 87.578125 C 63.507812 87.976562 62.945312 87.917969 62.664062 87.859375 C 62.382812 87.804688 61.929688 87.636719 61.59375 87.074219 C 60.355469 84.9375 58.667969 83.195312 56.53125 81.84375 C 54 80.210938 51.015625 79.367188 48.039062 79.367188 C 47.417969 79.367188 46.742188 79.421875 46.125 79.480469 C 45.507812 79.539062 45.054688 79.257812 44.828125 79.085938 C 44.605469 78.917969 44.265625 78.523438 44.265625 77.90625 C 44.15625 75.484375 43.480469 73.070312 42.296875 70.929688 C 40.5 67.726562 37.632812 65.195312 34.257812 63.898438 C 33.695312 63.671875 33.414062 63.226562 33.355469 62.945312 C 33.242188 62.664062 33.132812 62.15625 33.414062 61.59375 C 34.480469 59.398438 35.042969 56.980469 34.984375 54.507812 C 34.929688 50.851562 33.578125 47.304688 31.164062 44.492188 C 30.765625 44.042969 30.765625 43.539062 30.765625 43.257812 C 30.824219 42.976562 30.9375 42.46875 31.445312 42.074219 C 33.414062 40.667969 34.984375 38.8125 36.109375 36.617188 Z M 36.109375 36.617188 " fill-opacity="1" fill-rule="nonzero"/><path fill="#d10024" d="M 1.089844 152.144531 C 1.332031 152.144531 1.503906 152.023438 1.605469 151.78125 L 1.957031 151.910156 C 1.878906 152.097656 1.765625 152.238281 1.617188 152.332031 C 1.46875 152.417969 1.292969 152.460938 1.089844 152.460938 C 0.777344 152.460938 0.535156 152.375 0.363281 152.203125 C 0.199219 152.023438 0.117188 151.777344 0.117188 151.464844 C 0.117188 151.144531 0.199219 150.898438 0.363281 150.726562 C 0.527344 150.554688 0.765625 150.46875 1.078125 150.46875 C 1.304688 150.46875 1.488281 150.515625 1.628906 150.609375 C 1.769531 150.703125 1.871094 150.835938 1.933594 151.007812 L 1.570312 151.113281 C 1.539062 151.011719 1.480469 150.933594 1.394531 150.878906 C 1.308594 150.824219 1.203125 150.796875 1.078125 150.796875 C 0.898438 150.796875 0.761719 150.855469 0.667969 150.972656 C 0.574219 151.082031 0.527344 151.246094 0.527344 151.464844 C 0.527344 151.683594 0.574219 151.851562 0.667969 151.96875 C 0.769531 152.085938 0.910156 152.144531 1.089844 152.144531 Z M 1.089844 152.144531 " fill-opacity="1" fill-rule="nonzero"/><path fill="#d10024" d="M 2.230469 152.4375 L 2.230469 151.300781 C 2.230469 151.222656 2.222656 151.15625 2.21875 151.101562 C 2.21875 151.046875 2.21875 150.996094 2.21875 150.949219 L 2.582031 150.949219 C 2.585938 150.964844 2.59375 151.015625 2.59375 151.101562 C 2.597656 151.1875 2.605469 151.242188 2.605469 151.265625 C 2.644531 151.164062 2.679688 151.09375 2.710938 151.054688 C 2.738281 151.007812 2.773438 150.976562 2.816406 150.960938 C 2.855469 150.9375 2.902344 150.925781 2.96875 150.925781 C 3.015625 150.925781 3.054688 150.929688 3.085938 150.9375 L 3.085938 151.265625 C 3.019531 151.25 2.96875 151.242188 2.921875 151.242188 C 2.820312 151.242188 2.738281 151.28125 2.6875 151.359375 C 2.640625 151.4375 2.617188 151.554688 2.617188 151.710938 L 2.617188 152.4375 Z M 2.230469 152.4375 " fill-opacity="1" fill-rule="nonzero"/><path fill="#d10024" d="M 3.933594 152.460938 C 3.707031 152.460938 3.53125 152.394531 3.40625 152.261719 C 3.289062 152.128906 3.230469 151.9375 3.230469 151.6875 C 3.230469 151.445312 3.292969 151.257812 3.417969 151.125 C 3.542969 150.992188 3.714844 150.925781 3.933594 150.925781 C 4.144531 150.925781 4.304688 150.996094 4.414062 151.136719 C 4.53125 151.277344 4.589844 151.484375 4.589844 151.757812 L 4.589844 151.769531 L 3.640625 151.769531 C 3.640625 151.910156 3.667969 152.019531 3.722656 152.097656 C 3.777344 152.167969 3.851562 152.203125 3.945312 152.203125 C 4.085938 152.203125 4.171875 152.144531 4.203125 152.027344 L 4.566406 152.0625 C 4.464844 152.328125 4.253906 152.460938 3.933594 152.460938 Z M 3.933594 151.171875 C 3.839844 151.171875 3.769531 151.203125 3.722656 151.265625 C 3.675781 151.328125 3.648438 151.414062 3.640625 151.523438 L 4.214844 151.523438 C 4.207031 151.40625 4.179688 151.320312 4.132812 151.265625 C 4.085938 151.203125 4.019531 151.171875 3.933594 151.171875 Z M 3.933594 151.171875 " fill-opacity="1" fill-rule="nonzero"/><path fill="#d10024" d="M 5.230469 152.460938 C 5.089844 152.460938 4.972656 152.421875 4.890625 152.34375 C 4.808594 152.265625 4.773438 152.15625 4.773438 152.015625 C 4.773438 151.859375 4.820312 151.742188 4.925781 151.664062 C 5.023438 151.585938 5.171875 151.546875 5.359375 151.546875 L 5.675781 151.535156 L 5.675781 151.464844 C 5.675781 151.363281 5.65625 151.289062 5.628906 151.242188 C 5.59375 151.195312 5.539062 151.171875 5.464844 151.171875 C 5.394531 151.171875 5.335938 151.191406 5.300781 151.230469 C 5.265625 151.261719 5.246094 151.3125 5.242188 151.382812 L 4.84375 151.359375 C 4.867188 151.21875 4.925781 151.113281 5.03125 151.042969 C 5.136719 150.964844 5.289062 150.925781 5.476562 150.925781 C 5.664062 150.925781 5.804688 150.972656 5.910156 151.066406 C 6.007812 151.160156 6.0625 151.289062 6.0625 151.453125 L 6.0625 151.992188 C 6.0625 152.078125 6.066406 152.136719 6.085938 152.167969 C 6.109375 152.199219 6.144531 152.214844 6.191406 152.214844 C 6.214844 152.214844 6.238281 152.214844 6.273438 152.214844 L 6.273438 152.414062 C 6.25 152.421875 6.226562 152.429688 6.203125 152.4375 C 6.183594 152.4375 6.167969 152.4375 6.15625 152.4375 C 6.136719 152.441406 6.121094 152.449219 6.097656 152.449219 C 6.074219 152.449219 6.050781 152.449219 6.027344 152.449219 C 5.921875 152.449219 5.851562 152.425781 5.804688 152.378906 C 5.761719 152.332031 5.734375 152.261719 5.722656 152.167969 C 5.609375 152.363281 5.445312 152.460938 5.230469 152.460938 Z M 5.675781 151.746094 L 5.488281 151.757812 C 5.394531 151.757812 5.324219 151.765625 5.289062 151.78125 C 5.246094 151.796875 5.21875 151.824219 5.195312 151.863281 C 5.175781 151.894531 5.171875 151.9375 5.171875 151.992188 C 5.171875 152.0625 5.183594 152.113281 5.21875 152.144531 C 5.253906 152.175781 5.300781 152.191406 5.359375 152.191406 C 5.410156 152.191406 5.464844 152.175781 5.511719 152.144531 C 5.5625 152.113281 5.605469 152.070312 5.628906 152.015625 C 5.65625 151.953125 5.675781 151.890625 5.675781 151.828125 Z M 5.675781 151.746094 " fill-opacity="1" fill-rule="nonzero"/><path fill="#d10024" d="M 6.828125 152.460938 C 6.71875 152.460938 6.632812 152.429688 6.570312 152.367188 C 6.507812 152.304688 6.476562 152.210938 6.476562 152.085938 L 6.476562 151.207031 L 6.289062 151.207031 L 6.289062 150.949219 L 6.5 150.949219 L 6.617188 150.597656 L 6.863281 150.597656 L 6.863281 150.949219 L 7.144531 150.949219 L 7.144531 151.207031 L 6.863281 151.207031 L 6.863281 151.980469 C 6.863281 152.058594 6.875 152.113281 6.898438 152.144531 C 6.929688 152.175781 6.972656 152.191406 7.027344 152.191406 C 7.058594 152.191406 7.101562 152.1875 7.15625 152.179688 L 7.15625 152.414062 C 7.0625 152.441406 6.953125 152.460938 6.828125 152.460938 Z M 6.828125 152.460938 " fill-opacity="1" fill-rule="nonzero"/><path fill="#d10024" d="M 8 152.460938 C 7.769531 152.460938 7.59375 152.394531 7.472656 152.261719 C 7.355469 152.128906 7.296875 151.9375 7.296875 151.6875 C 7.296875 151.445312 7.355469 151.257812 7.484375 151.125 C 7.605469 150.992188 7.777344 150.925781 8 150.925781 C 8.210938 150.925781 8.367188 150.996094 8.480469 151.136719 C 8.597656 151.277344 8.65625 151.484375 8.65625 151.757812 L 8.65625 151.769531 L 7.707031 151.769531 C 7.707031 151.910156 7.730469 152.019531 7.789062 152.097656 C 7.839844 152.167969 7.917969 152.203125 8.011719 152.203125 C 8.152344 152.203125 8.234375 152.144531 8.269531 152.027344 L 8.632812 152.0625 C 8.527344 152.328125 8.316406 152.460938 8 152.460938 Z M 8 151.171875 C 7.90625 151.171875 7.835938 151.203125 7.789062 151.265625 C 7.742188 151.328125 7.710938 151.414062 7.707031 151.523438 L 8.28125 151.523438 C 8.269531 151.40625 8.246094 151.320312 8.199219 151.265625 C 8.152344 151.203125 8.082031 151.171875 8 151.171875 Z M 8 151.171875 " fill-opacity="1" fill-rule="nonzero"/><path fill="#d10024" d="M 9.914062 152.4375 C 9.90625 152.421875 9.898438 152.386719 9.890625 152.332031 C 9.890625 152.277344 9.890625 152.230469 9.890625 152.191406 C 9.804688 152.371094 9.644531 152.460938 9.410156 152.460938 C 9.238281 152.460938 9.105469 152.394531 9.011719 152.261719 C 8.917969 152.128906 8.871094 151.941406 8.871094 151.699219 C 8.871094 151.449219 8.917969 151.257812 9.011719 151.125 C 9.113281 150.992188 9.257812 150.925781 9.445312 150.925781 C 9.546875 150.925781 9.636719 150.949219 9.714844 150.996094 C 9.792969 151.035156 9.851562 151.097656 9.890625 151.183594 L 9.890625 150.398438 L 10.277344 150.398438 L 10.277344 152.109375 C 10.277344 152.203125 10.28125 152.3125 10.289062 152.4375 Z M 9.890625 151.6875 C 9.890625 151.523438 9.863281 151.398438 9.808594 151.3125 C 9.761719 151.226562 9.683594 151.183594 9.574219 151.183594 C 9.472656 151.183594 9.394531 151.226562 9.339844 151.3125 C 9.292969 151.398438 9.269531 151.527344 9.269531 151.699219 C 9.269531 152.035156 9.371094 152.203125 9.574219 152.203125 C 9.675781 152.203125 9.753906 152.160156 9.808594 152.074219 C 9.863281 151.980469 9.890625 151.851562 9.890625 151.6875 Z M 9.890625 151.6875 " fill-opacity="1" fill-rule="nonzero"/><path fill="#d10024" d="M 12.859375 151.6875 C 12.859375 151.9375 12.804688 152.128906 12.707031 152.261719 C 12.613281 152.394531 12.472656 152.460938 12.285156 152.460938 C 12.183594 152.460938 12.089844 152.441406 12.015625 152.402344 C 11.9375 152.355469 11.878906 152.289062 11.839844 152.203125 L 11.828125 152.203125 C 11.828125 152.234375 11.820312 152.277344 11.816406 152.332031 C 11.816406 152.386719 11.816406 152.421875 11.816406 152.4375 L 11.441406 152.4375 C 11.445312 152.351562 11.453125 152.238281 11.453125 152.097656 L 11.453125 150.398438 L 11.839844 150.398438 L 11.839844 150.972656 L 11.828125 151.207031 L 11.839844 151.207031 C 11.925781 151.019531 12.078125 150.925781 12.308594 150.925781 C 12.488281 150.925781 12.625 150.992188 12.71875 151.125 C 12.8125 151.257812 12.859375 151.445312 12.859375 151.6875 Z M 12.449219 151.6875 C 12.449219 151.523438 12.425781 151.402344 12.378906 151.324219 C 12.332031 151.238281 12.253906 151.195312 12.15625 151.195312 C 12.042969 151.195312 11.960938 151.238281 11.910156 151.324219 C 11.855469 151.410156 11.828125 151.535156 11.828125 151.699219 C 11.828125 151.855469 11.855469 151.980469 11.910156 152.074219 C 11.960938 152.160156 12.042969 152.203125 12.144531 152.203125 C 12.347656 152.203125 12.449219 152.03125 12.449219 151.6875 Z M 12.449219 151.6875 " fill-opacity="1" fill-rule="nonzero"/><path fill="#d10024" d="M 13.359375 153.023438 C 13.265625 153.023438 13.183594 153.015625 13.113281 153 L 13.113281 152.730469 C 13.164062 152.734375 13.210938 152.742188 13.253906 152.742188 C 13.304688 152.742188 13.351562 152.730469 13.382812 152.707031 C 13.421875 152.6875 13.453125 152.664062 13.476562 152.625 C 13.503906 152.582031 13.539062 152.519531 13.582031 152.425781 L 12.996094 150.949219 L 13.40625 150.949219 L 13.640625 151.652344 C 13.667969 151.746094 13.714844 151.898438 13.769531 152.109375 L 13.804688 151.980469 L 13.898438 151.652344 L 14.121094 150.949219 L 14.519531 150.949219 L 13.933594 152.519531 C 13.855469 152.707031 13.773438 152.835938 13.6875 152.90625 C 13.597656 152.980469 13.492188 153.023438 13.359375 153.023438 Z M 13.359375 153.023438 " fill-opacity="1" fill-rule="nonzero"/><path fill="#d10024" d="M 17.226562 151.453125 C 17.226562 151.65625 17.1875 151.832031 17.109375 151.980469 C 17.03125 152.128906 16.921875 152.242188 16.78125 152.320312 C 16.640625 152.398438 16.476562 152.4375 16.289062 152.4375 L 15.503906 152.4375 L 15.503906 150.503906 L 16.207031 150.503906 C 16.535156 150.503906 16.785156 150.585938 16.957031 150.75 C 17.136719 150.914062 17.226562 151.148438 17.226562 151.453125 Z M 16.816406 151.453125 C 16.816406 151.25 16.761719 151.09375 16.652344 150.984375 C 16.550781 150.875 16.398438 150.820312 16.195312 150.820312 L 15.914062 150.820312 L 15.914062 152.121094 L 16.253906 152.121094 C 16.425781 152.121094 16.5625 152.0625 16.664062 151.945312 C 16.765625 151.828125 16.816406 151.664062 16.816406 151.453125 Z M 16.816406 151.453125 " fill-opacity="1" fill-rule="nonzero"/><path fill="#d10024" d="M 18.15625 152.460938 C 17.929688 152.460938 17.753906 152.394531 17.628906 152.261719 C 17.511719 152.128906 17.453125 151.9375 17.453125 151.6875 C 17.453125 151.445312 17.515625 151.257812 17.640625 151.125 C 17.765625 150.992188 17.9375 150.925781 18.15625 150.925781 C 18.367188 150.925781 18.527344 150.996094 18.636719 151.136719 C 18.753906 151.277344 18.8125 151.484375 18.8125 151.757812 L 18.8125 151.769531 L 17.863281 151.769531 C 17.863281 151.910156 17.890625 152.019531 17.945312 152.097656 C 18 152.167969 18.074219 152.203125 18.167969 152.203125 C 18.308594 152.203125 18.394531 152.144531 18.425781 152.027344 L 18.789062 152.0625 C 18.6875 152.328125 18.476562 152.460938 18.15625 152.460938 Z M 18.15625 151.171875 C 18.0625 151.171875 17.992188 151.203125 17.945312 151.265625 C 17.898438 151.328125 17.871094 151.414062 17.863281 151.523438 L 18.4375 151.523438 C 18.429688 151.40625 18.402344 151.320312 18.355469 151.265625 C 18.308594 151.203125 18.242188 151.171875 18.15625 151.171875 Z M 18.15625 151.171875 " fill-opacity="1" fill-rule="nonzero"/><path fill="#d10024" d="M 19.113281 150.398438 L 19.5 150.398438 L 19.5 152.4375 L 19.113281 152.4375 Z M 19.113281 150.398438 " fill-opacity="1" fill-rule="nonzero"/><path fill="#d10024" d="M 21.5 152.4375 L 21.089844 152.4375 L 20.855469 151.535156 C 20.847656 151.488281 20.824219 151.386719 20.785156 151.230469 L 20.714844 151.535156 L 20.480469 152.4375 L 20.070312 152.4375 L 19.683594 150.949219 L 20.046875 150.949219 L 20.292969 152.085938 L 20.316406 151.980469 L 20.351562 151.828125 L 20.585938 150.949219 L 20.996094 150.949219 L 21.21875 151.828125 C 21.234375 151.875 21.253906 151.960938 21.277344 152.085938 L 21.3125 151.910156 L 21.535156 150.949219 L 21.886719 150.949219 Z M 21.5 152.4375 " fill-opacity="1" fill-rule="nonzero"/><path fill="#d10024" d="M 22.421875 152.460938 C 22.28125 152.460938 22.167969 152.421875 22.082031 152.34375 C 22.003906 152.265625 21.964844 152.15625 21.964844 152.015625 C 21.964844 151.859375 22.015625 151.742188 22.117188 151.664062 C 22.214844 151.585938 22.363281 151.546875 22.550781 151.546875 L 22.867188 151.535156 L 22.867188 151.464844 C 22.867188 151.363281 22.847656 151.289062 22.820312 151.242188 C 22.789062 151.195312 22.730469 151.171875 22.65625 151.171875 C 22.585938 151.171875 22.53125 151.191406 22.492188 151.230469 C 22.460938 151.261719 22.4375 151.3125 22.433594 151.382812 L 22.035156 151.359375 C 22.058594 151.21875 22.121094 151.113281 22.222656 151.042969 C 22.332031 150.964844 22.480469 150.925781 22.667969 150.925781 C 22.855469 150.925781 23 150.972656 23.101562 151.066406 C 23.199219 151.160156 23.253906 151.289062 23.253906 151.453125 L 23.253906 151.992188 C 23.253906 152.078125 23.257812 152.136719 23.277344 152.167969 C 23.300781 152.199219 23.335938 152.214844 23.382812 152.214844 C 23.40625 152.214844 23.433594 152.214844 23.464844 152.214844 L 23.464844 152.414062 C 23.441406 152.421875 23.417969 152.429688 23.394531 152.4375 C 23.375 152.4375 23.363281 152.4375 23.347656 152.4375 C 23.328125 152.441406 23.3125 152.449219 23.289062 152.449219 C 23.265625 152.449219 23.242188 152.449219 23.21875 152.449219 C 23.117188 152.449219 23.042969 152.425781 22.996094 152.378906 C 22.953125 152.332031 22.929688 152.261719 22.914062 152.167969 C 22.800781 152.363281 22.636719 152.460938 22.421875 152.460938 Z M 22.867188 151.746094 L 22.679688 151.757812 C 22.585938 151.757812 22.519531 151.765625 22.480469 151.78125 C 22.4375 151.796875 22.410156 151.824219 22.386719 151.863281 C 22.367188 151.894531 22.363281 151.9375 22.363281 151.992188 C 22.363281 152.0625 22.378906 152.113281 22.410156 152.144531 C 22.449219 152.175781 22.496094 152.191406 22.550781 152.191406 C 22.601562 152.191406 22.65625 152.175781 22.703125 152.144531 C 22.753906 152.113281 22.796875 152.070312 22.820312 152.015625 C 22.847656 151.953125 22.867188 151.890625 22.867188 151.828125 Z M 22.867188 151.746094 " fill-opacity="1" fill-rule="nonzero"/><path fill="#d10024" d="M 23.644531 152.4375 L 23.644531 151.300781 C 23.644531 151.222656 23.640625 151.15625 23.632812 151.101562 C 23.632812 151.046875 23.632812 150.996094 23.632812 150.949219 L 23.996094 150.949219 C 24.003906 150.964844 24.007812 151.015625 24.007812 151.101562 C 24.015625 151.1875 24.019531 151.242188 24.019531 151.265625 C 24.058594 151.164062 24.09375 151.09375 24.125 151.054688 C 24.15625 151.007812 24.191406 150.976562 24.230469 150.960938 C 24.269531 150.9375 24.320312 150.925781 24.382812 150.925781 C 24.429688 150.925781 24.46875 150.929688 24.5 150.9375 L 24.5 151.265625 C 24.4375 151.25 24.382812 151.242188 24.335938 151.242188 C 24.234375 151.242188 24.15625 151.28125 24.101562 151.359375 C 24.054688 151.4375 24.03125 151.554688 24.03125 151.710938 L 24.03125 152.4375 Z M 23.644531 152.4375 " fill-opacity="1" fill-rule="nonzero"/><path fill="#d10024" d="M 26.761719 152.4375 L 26.761719 151.605469 L 25.917969 151.605469 L 25.917969 152.4375 L 25.507812 152.4375 L 25.507812 150.503906 L 25.917969 150.503906 L 25.917969 151.277344 L 26.761719 151.277344 L 26.761719 150.503906 L 27.160156 150.503906 L 27.160156 152.4375 Z M 26.761719 152.4375 " fill-opacity="1" fill-rule="nonzero"/><path fill="#d10024" d="M 28.957031 151.6875 C 28.957031 151.929688 28.890625 152.121094 28.757812 152.261719 C 28.625 152.394531 28.441406 152.460938 28.207031 152.460938 C 27.972656 152.460938 27.789062 152.394531 27.65625 152.261719 C 27.523438 152.121094 27.457031 151.929688 27.457031 151.6875 C 27.457031 151.453125 27.523438 151.269531 27.65625 151.136719 C 27.789062 150.996094 27.972656 150.925781 28.207031 150.925781 C 28.457031 150.925781 28.644531 150.992188 28.769531 151.125 C 28.894531 151.257812 28.957031 151.445312 28.957031 151.6875 Z M 28.558594 151.6875 C 28.558594 151.515625 28.527344 151.390625 28.464844 151.3125 C 28.410156 151.226562 28.328125 151.183594 28.21875 151.183594 C 27.984375 151.183594 27.867188 151.351562 27.867188 151.6875 C 27.867188 151.859375 27.894531 151.988281 27.949219 152.074219 C 28.011719 152.160156 28.09375 152.203125 28.195312 152.203125 C 28.4375 152.203125 28.558594 152.03125 28.558594 151.6875 Z M 28.558594 151.6875 " fill-opacity="1" fill-rule="nonzero"/><path fill="#d10024" d="M 30.523438 152.003906 C 30.523438 152.144531 30.464844 152.257812 30.347656 152.34375 C 30.230469 152.421875 30.066406 152.460938 29.855469 152.460938 C 29.652344 152.460938 29.496094 152.429688 29.386719 152.367188 C 29.277344 152.304688 29.203125 152.203125 29.164062 152.0625 L 29.503906 152.015625 C 29.527344 152.085938 29.5625 152.136719 29.609375 152.167969 C 29.65625 152.199219 29.738281 152.214844 29.855469 152.214844 C 29.964844 152.214844 30.042969 152.203125 30.089844 152.179688 C 30.136719 152.148438 30.160156 152.101562 30.160156 152.039062 C 30.160156 151.992188 30.140625 151.957031 30.101562 151.933594 C 30.0625 151.902344 29.996094 151.875 29.902344 151.851562 C 29.683594 151.8125 29.535156 151.773438 29.457031 151.734375 C 29.386719 151.695312 29.328125 151.648438 29.28125 151.59375 C 29.242188 151.53125 29.222656 151.457031 29.222656 151.371094 C 29.222656 151.230469 29.277344 151.121094 29.386719 151.042969 C 29.496094 150.964844 29.652344 150.925781 29.855469 150.925781 C 30.035156 150.925781 30.175781 150.960938 30.277344 151.03125 C 30.386719 151.09375 30.457031 151.191406 30.488281 151.324219 L 30.148438 151.359375 C 30.132812 151.296875 30.101562 151.253906 30.054688 151.230469 C 30.015625 151.199219 29.949219 151.183594 29.855469 151.183594 C 29.761719 151.183594 29.691406 151.195312 29.644531 151.21875 C 29.605469 151.242188 29.585938 151.28125 29.585938 151.335938 C 29.585938 151.375 29.601562 151.410156 29.632812 151.441406 C 29.671875 151.464844 29.730469 151.484375 29.808594 151.5 C 29.925781 151.523438 30.027344 151.546875 30.113281 151.570312 C 30.207031 151.59375 30.28125 151.625 30.335938 151.664062 C 30.390625 151.695312 30.433594 151.738281 30.464844 151.792969 C 30.503906 151.847656 30.523438 151.917969 30.523438 152.003906 Z M 30.523438 152.003906 " fill-opacity="1" fill-rule="nonzero"/><path fill="#d10024" d="M 32.089844 152.003906 C 32.089844 152.144531 32.03125 152.257812 31.914062 152.34375 C 31.796875 152.421875 31.632812 152.460938 31.421875 152.460938 C 31.214844 152.460938 31.058594 152.429688 30.953125 152.367188 C 30.839844 152.304688 30.765625 152.203125 30.730469 152.0625 L 31.070312 152.015625 C 31.09375 152.085938 31.128906 152.136719 31.175781 152.167969 C 31.222656 152.199219 31.304688 152.214844 31.421875 152.214844 C 31.527344 152.214844 31.609375 152.203125 31.65625 152.179688 C 31.703125 152.148438 31.726562 152.101562 31.726562 152.039062 C 31.726562 151.992188 31.703125 151.957031 31.667969 151.933594 C 31.625 151.902344 31.5625 151.875 31.46875 151.851562 C 31.246094 151.8125 31.097656 151.773438 31.023438 151.734375 C 30.953125 151.695312 30.894531 151.648438 30.847656 151.59375 C 30.804688 151.53125 30.789062 151.457031 30.789062 151.371094 C 30.789062 151.230469 30.839844 151.121094 30.953125 151.042969 C 31.058594 150.964844 31.214844 150.925781 31.421875 150.925781 C 31.597656 150.925781 31.738281 150.960938 31.84375 151.03125 C 31.949219 151.09375 32.019531 151.191406 32.054688 151.324219 L 31.714844 151.359375 C 31.695312 151.296875 31.667969 151.253906 31.621094 151.230469 C 31.578125 151.199219 31.515625 151.183594 31.421875 151.183594 C 31.328125 151.183594 31.257812 151.195312 31.210938 151.21875 C 31.167969 151.242188 31.152344 151.28125 31.152344 151.335938 C 31.152344 151.375 31.164062 151.410156 31.199219 151.441406 C 31.234375 151.464844 31.292969 151.484375 31.375 151.5 C 31.492188 151.523438 31.589844 151.546875 31.679688 151.570312 C 31.773438 151.59375 31.84375 151.625 31.902344 151.664062 C 31.953125 151.695312 31.996094 151.738281 32.03125 151.792969 C 32.066406 151.847656 32.089844 151.917969 32.089844 152.003906 Z M 32.089844 152.003906 " fill-opacity="1" fill-rule="nonzero"/><path fill="#d10024" d="M 32.738281 152.460938 C 32.597656 152.460938 32.484375 152.421875 32.398438 152.34375 C 32.320312 152.265625 32.28125 152.15625 32.28125 152.015625 C 32.28125 151.859375 32.332031 151.742188 32.433594 151.664062 C 32.535156 151.585938 32.679688 151.546875 32.867188 151.546875 L 33.183594 151.535156 L 33.183594 151.464844 C 33.183594 151.363281 33.167969 151.289062 33.136719 151.242188 C 33.105469 151.195312 33.050781 151.171875 32.972656 151.171875 C 32.902344 151.171875 32.847656 151.191406 32.808594 151.230469 C 32.777344 151.261719 32.757812 151.3125 32.75 151.382812 L 32.351562 151.359375 C 32.375 151.21875 32.4375 151.113281 32.539062 151.042969 C 32.648438 150.964844 32.796875 150.925781 32.984375 150.925781 C 33.171875 150.925781 33.316406 150.972656 33.417969 151.066406 C 33.519531 151.160156 33.570312 151.289062 33.570312 151.453125 L 33.570312 151.992188 C 33.570312 152.078125 33.578125 152.136719 33.59375 152.167969 C 33.617188 152.199219 33.652344 152.214844 33.699219 152.214844 C 33.722656 152.214844 33.75 152.214844 33.78125 152.214844 L 33.78125 152.414062 C 33.757812 152.421875 33.734375 152.429688 33.710938 152.4375 C 33.695312 152.4375 33.679688 152.4375 33.664062 152.4375 C 33.648438 152.441406 33.628906 152.449219 33.605469 152.449219 C 33.582031 152.449219 33.558594 152.449219 33.535156 152.449219 C 33.433594 152.449219 33.359375 152.425781 33.3125 152.378906 C 33.273438 152.332031 33.246094 152.261719 33.230469 152.167969 C 33.121094 152.363281 32.957031 152.460938 32.738281 152.460938 Z M 33.183594 151.746094 L 32.996094 151.757812 C 32.902344 151.757812 32.835938 151.765625 32.796875 151.78125 C 32.757812 151.796875 32.726562 151.824219 32.703125 151.863281 C 32.6875 151.894531 32.679688 151.9375 32.679688 151.992188 C 32.679688 152.0625 32.695312 152.113281 32.726562 152.144531 C 32.765625 152.175781 32.8125 152.191406 32.867188 152.191406 C 32.921875 152.191406 32.972656 152.175781 33.019531 152.144531 C 33.074219 152.113281 33.113281 152.070312 33.136719 152.015625 C 33.167969 151.953125 33.183594 151.890625 33.183594 151.828125 Z M 33.183594 151.746094 " fill-opacity="1" fill-rule="nonzero"/><path fill="#d10024" d="M 33.960938 150.679688 L 33.960938 150.398438 L 34.347656 150.398438 L 34.347656 150.679688 Z M 33.960938 152.4375 L 33.960938 150.949219 L 34.347656 150.949219 L 34.347656 152.4375 Z M 33.960938 152.4375 " fill-opacity="1" fill-rule="nonzero"/><path fill="#d10024" d="M 35.707031 152.4375 L 35.707031 151.605469 C 35.707031 151.339844 35.613281 151.207031 35.4375 151.207031 C 35.34375 151.207031 35.265625 151.25 35.214844 151.335938 C 35.15625 151.414062 35.132812 151.515625 35.132812 151.640625 L 35.132812 152.4375 L 34.746094 152.4375 L 34.746094 151.289062 C 34.746094 151.203125 34.738281 151.136719 34.734375 151.089844 C 34.734375 151.035156 34.734375 150.988281 34.734375 150.949219 L 35.097656 150.949219 C 35.101562 150.964844 35.109375 151.011719 35.109375 151.089844 C 35.113281 151.167969 35.121094 151.21875 35.121094 151.242188 C 35.171875 151.132812 35.238281 151.054688 35.320312 151.007812 C 35.394531 150.953125 35.488281 150.925781 35.601562 150.925781 C 35.753906 150.925781 35.875 150.976562 35.964844 151.078125 C 36.046875 151.171875 36.09375 151.308594 36.09375 151.488281 L 36.09375 152.4375 Z M 35.707031 152.4375 " fill-opacity="1" fill-rule="nonzero"/><path fill="#d10024" d="M 0.644531 154.019531 L 0.644531 155.25 L 0.269531 155.25 L 0.269531 154.019531 L 0.046875 154.019531 L 0.046875 153.761719 L 0.269531 153.761719 L 0.269531 153.609375 C 0.269531 153.476562 0.304688 153.378906 0.375 153.316406 C 0.445312 153.246094 0.554688 153.210938 0.703125 153.210938 C 0.773438 153.210938 0.851562 153.21875 0.9375 153.234375 L 0.9375 153.480469 C 0.90625 153.472656 0.871094 153.46875 0.832031 153.46875 C 0.761719 153.46875 0.710938 153.484375 0.679688 153.515625 C 0.65625 153.539062 0.644531 153.582031 0.644531 153.644531 L 0.644531 153.761719 L 0.9375 153.761719 L 0.9375 154.019531 Z M 0.644531 154.019531 " fill-opacity="1" fill-rule="nonzero"/><path fill="#d10024" d="M 1.136719 155.25 L 1.136719 154.113281 C 1.136719 154.035156 1.128906 153.96875 1.125 153.914062 C 1.125 153.859375 1.125 153.808594 1.125 153.761719 L 1.488281 153.761719 C 1.492188 153.777344 1.5 153.828125 1.5 153.914062 C 1.503906 154 1.511719 154.054688 1.511719 154.078125 C 1.550781 153.976562 1.585938 153.90625 1.617188 153.867188 C 1.644531 153.820312 1.679688 153.789062 1.722656 153.773438 C 1.761719 153.75 1.808594 153.738281 1.875 153.738281 C 1.921875 153.738281 1.960938 153.742188 1.992188 153.75 L 1.992188 154.078125 C 1.925781 154.0625 1.875 154.054688 1.828125 154.054688 C 1.726562 154.054688 1.644531 154.09375 1.59375 154.171875 C 1.546875 154.25 1.523438 154.367188 1.523438 154.523438 L 1.523438 155.25 Z M 1.136719 155.25 " fill-opacity="1" fill-rule="nonzero"/><path fill="#d10024" d="M 3.636719 154.5 C 3.636719 154.742188 3.570312 154.933594 3.4375 155.074219 C 3.300781 155.207031 3.121094 155.273438 2.886719 155.273438 C 2.652344 155.273438 2.46875 155.207031 2.335938 155.074219 C 2.199219 154.933594 2.136719 154.742188 2.136719 154.5 C 2.136719 154.265625 2.199219 154.082031 2.335938 153.949219 C 2.46875 153.808594 2.652344 153.738281 2.886719 153.738281 C 3.136719 153.738281 3.324219 153.804688 3.449219 153.9375 C 3.570312 154.070312 3.636719 154.257812 3.636719 154.5 Z M 3.238281 154.5 C 3.238281 154.328125 3.207031 154.203125 3.144531 154.125 C 3.089844 154.039062 3.007812 153.996094 2.898438 153.996094 C 2.664062 153.996094 2.546875 154.164062 2.546875 154.5 C 2.546875 154.671875 2.574219 154.800781 2.628906 154.886719 C 2.691406 154.972656 2.773438 155.015625 2.875 155.015625 C 3.113281 155.015625 3.238281 154.84375 3.238281 154.5 Z M 3.238281 154.5 " fill-opacity="1" fill-rule="nonzero"/><path fill="#d10024" d="M 4.816406 155.25 L 4.816406 154.417969 C 4.816406 154.152344 4.738281 154.019531 4.59375 154.019531 C 4.515625 154.019531 4.453125 154.0625 4.40625 154.148438 C 4.359375 154.226562 4.335938 154.328125 4.335938 154.453125 L 4.335938 155.25 L 3.949219 155.25 L 3.949219 154.101562 C 3.949219 154.015625 3.941406 153.949219 3.9375 153.902344 C 3.9375 153.847656 3.9375 153.800781 3.9375 153.761719 L 4.300781 153.761719 C 4.304688 153.777344 4.3125 153.824219 4.3125 153.902344 C 4.316406 153.980469 4.324219 154.03125 4.324219 154.054688 C 4.371094 153.945312 4.429688 153.867188 4.5 153.820312 C 4.570312 153.765625 4.65625 153.738281 4.757812 153.738281 C 4.984375 153.738281 5.121094 153.84375 5.167969 154.054688 L 5.179688 154.054688 C 5.230469 153.945312 5.296875 153.867188 5.367188 153.820312 C 5.4375 153.765625 5.523438 153.738281 5.636719 153.738281 C 5.777344 153.738281 5.886719 153.789062 5.964844 153.890625 C 6.039062 153.984375 6.082031 154.121094 6.082031 154.300781 L 6.082031 155.25 L 5.695312 155.25 L 5.695312 154.417969 C 5.695312 154.152344 5.617188 154.019531 5.472656 154.019531 C 5.394531 154.019531 5.332031 154.058594 5.285156 154.136719 C 5.238281 154.207031 5.207031 154.308594 5.203125 154.441406 L 5.203125 155.25 Z M 4.816406 155.25 " fill-opacity="1" fill-rule="nonzero"/><path fill="#d10024" d="M 7.605469 155.273438 C 7.496094 155.273438 7.410156 155.242188 7.347656 155.179688 C 7.285156 155.117188 7.253906 155.023438 7.253906 154.898438 L 7.253906 154.019531 L 7.066406 154.019531 L 7.066406 153.761719 L 7.277344 153.761719 L 7.394531 153.410156 L 7.640625 153.410156 L 7.640625 153.761719 L 7.921875 153.761719 L 7.921875 154.019531 L 7.640625 154.019531 L 7.640625 154.792969 C 7.640625 154.871094 7.652344 154.925781 7.675781 154.957031 C 7.707031 154.988281 7.75 155.003906 7.804688 155.003906 C 7.835938 155.003906 7.878906 155 7.933594 154.992188 L 7.933594 155.226562 C 7.839844 155.253906 7.730469 155.273438 7.605469 155.273438 Z M 7.605469 155.273438 " fill-opacity="1" fill-rule="nonzero"/><path fill="#d10024" d="M 8.542969 154.066406 C 8.59375 153.949219 8.664062 153.867188 8.742188 153.820312 C 8.816406 153.765625 8.910156 153.738281 9.023438 153.738281 C 9.179688 153.738281 9.296875 153.789062 9.386719 153.890625 C 9.472656 153.984375 9.515625 154.125 9.515625 154.3125 L 9.515625 155.25 L 9.128906 155.25 L 9.128906 154.417969 C 9.128906 154.160156 9.039062 154.03125 8.859375 154.03125 C 8.765625 154.03125 8.6875 154.070312 8.636719 154.148438 C 8.582031 154.226562 8.554688 154.328125 8.554688 154.453125 L 8.554688 155.25 L 8.167969 155.25 L 8.167969 153.210938 L 8.554688 153.210938 L 8.554688 153.773438 C 8.554688 153.867188 8.546875 153.964844 8.542969 154.066406 Z M 8.542969 154.066406 " fill-opacity="1" fill-rule="nonzero"/><path fill="#d10024" d="M 10.492188 155.273438 C 10.265625 155.273438 10.089844 155.207031 9.964844 155.074219 C 9.847656 154.941406 9.789062 154.75 9.789062 154.5 C 9.789062 154.257812 9.851562 154.070312 9.976562 153.9375 C 10.101562 153.804688 10.273438 153.738281 10.492188 153.738281 C 10.703125 153.738281 10.863281 153.808594 10.972656 153.949219 C 11.089844 154.089844 11.148438 154.296875 11.148438 154.570312 L 11.148438 154.582031 L 10.199219 154.582031 C 10.199219 154.722656 10.226562 154.832031 10.28125 154.910156 C 10.335938 154.980469 10.410156 155.015625 10.503906 155.015625 C 10.644531 155.015625 10.730469 154.957031 10.761719 154.839844 L 11.125 154.875 C 11.023438 155.140625 10.8125 155.273438 10.492188 155.273438 Z M 10.492188 153.984375 C 10.398438 153.984375 10.328125 154.015625 10.28125 154.078125 C 10.234375 154.140625 10.207031 154.226562 10.199219 154.335938 L 10.773438 154.335938 C 10.765625 154.21875 10.738281 154.132812 10.691406 154.078125 C 10.644531 154.015625 10.578125 153.984375 10.492188 153.984375 Z M 10.492188 153.984375 " fill-opacity="1" fill-rule="nonzero"/><path fill="#d10024" d="M 13.402344 155.25 L 12.558594 153.761719 C 12.574219 153.902344 12.582031 154.019531 12.582031 154.113281 L 12.582031 155.25 L 12.21875 155.25 L 12.21875 153.316406 L 12.6875 153.316406 L 13.542969 154.816406 C 13.519531 154.675781 13.507812 154.550781 13.507812 154.441406 L 13.507812 153.316406 L 13.871094 153.316406 L 13.871094 155.25 Z M 13.402344 155.25 " fill-opacity="1" fill-rule="nonzero"/><path fill="#d10024" d="M 15.667969 154.5 C 15.667969 154.742188 15.601562 154.933594 15.46875 155.074219 C 15.335938 155.207031 15.152344 155.273438 14.917969 155.273438 C 14.683594 155.273438 14.5 155.207031 14.367188 155.074219 C 14.234375 154.933594 14.167969 154.742188 14.167969 154.5 C 14.167969 154.265625 14.234375 154.082031 14.367188 153.949219 C 14.5 153.808594 14.683594 153.738281 14.917969 153.738281 C 15.167969 153.738281 15.355469 153.804688 15.480469 153.9375 C 15.605469 154.070312 15.667969 154.257812 15.667969 154.5 Z M 15.269531 154.5 C 15.269531 154.328125 15.238281 154.203125 15.175781 154.125 C 15.121094 154.039062 15.039062 153.996094 14.929688 153.996094 C 14.695312 153.996094 14.578125 154.164062 14.578125 154.5 C 14.578125 154.671875 14.605469 154.800781 14.660156 154.886719 C 14.722656 154.972656 14.804688 155.015625 14.90625 155.015625 C 15.148438 155.015625 15.269531 154.84375 15.269531 154.5 Z M 15.269531 154.5 " fill-opacity="1" fill-rule="nonzero"/><path fill="#d10024" d="M 16.34375 153.761719 L 16.34375 154.59375 C 16.34375 154.859375 16.425781 154.992188 16.601562 154.992188 C 16.695312 154.992188 16.765625 154.953125 16.824219 154.875 C 16.882812 154.789062 16.917969 154.683594 16.917969 154.558594 L 16.917969 153.761719 L 17.304688 153.761719 L 17.304688 154.921875 C 17.304688 155.046875 17.304688 155.15625 17.316406 155.25 L 16.941406 155.25 C 16.929688 155.117188 16.929688 155.019531 16.929688 154.957031 L 16.917969 154.957031 C 16.871094 155.066406 16.804688 155.148438 16.730469 155.203125 C 16.648438 155.25 16.554688 155.273438 16.449219 155.273438 C 16.285156 155.273438 16.15625 155.226562 16.074219 155.132812 C 15.992188 155.039062 15.957031 154.898438 15.957031 154.710938 L 15.957031 153.761719 Z M 16.34375 153.761719 " fill-opacity="1" fill-rule="nonzero"/><path fill="#d10024" d="M 18.660156 155.25 L 18.660156 154.417969 C 18.660156 154.152344 18.566406 154.019531 18.390625 154.019531 C 18.296875 154.019531 18.21875 154.0625 18.167969 154.148438 C 18.109375 154.226562 18.085938 154.328125 18.085938 154.453125 L 18.085938 155.25 L 17.699219 155.25 L 17.699219 154.101562 C 17.699219 154.015625 17.691406 153.949219 17.6875 153.902344 C 17.6875 153.847656 17.6875 153.800781 17.6875 153.761719 L 18.050781 153.761719 C 18.054688 153.777344 18.0625 153.824219 18.0625 153.902344 C 18.066406 153.980469 18.074219 154.03125 18.074219 154.054688 C 18.125 153.945312 18.191406 153.867188 18.273438 153.820312 C 18.347656 153.765625 18.441406 153.738281 18.554688 153.738281 C 18.707031 153.738281 18.828125 153.789062 18.917969 153.890625 C 19 153.984375 19.046875 154.121094 19.046875 154.300781 L 19.046875 155.25 Z M 18.660156 155.25 " fill-opacity="1" fill-rule="nonzero"/><path fill="#d10024" d="M 21.777344 153.925781 C 21.777344 154.050781 21.746094 154.164062 21.683594 154.265625 C 21.628906 154.359375 21.546875 154.433594 21.4375 154.488281 C 21.335938 154.542969 21.214844 154.570312 21.074219 154.570312 L 20.59375 154.570312 L 20.59375 155.25 L 20.183594 155.25 L 20.183594 153.316406 L 21.050781 153.316406 C 21.285156 153.316406 21.464844 153.371094 21.589844 153.480469 C 21.714844 153.582031 21.777344 153.730469 21.777344 153.925781 Z M 21.367188 153.9375 C 21.367188 153.734375 21.246094 153.632812 21.003906 153.632812 L 20.59375 153.632812 L 20.59375 154.253906 L 21.015625 154.253906 C 21.132812 154.253906 21.21875 154.226562 21.273438 154.171875 C 21.335938 154.117188 21.367188 154.039062 21.367188 153.9375 Z M 21.367188 153.9375 " fill-opacity="1" fill-rule="nonzero"/><path fill="#d10024" d="M 22.074219 155.25 L 22.074219 154.113281 C 22.074219 154.035156 22.066406 153.96875 22.0625 153.914062 C 22.0625 153.859375 22.0625 153.808594 22.0625 153.761719 L 22.425781 153.761719 C 22.429688 153.777344 22.4375 153.828125 22.4375 153.914062 C 22.441406 154 22.449219 154.054688 22.449219 154.078125 C 22.484375 153.976562 22.519531 153.90625 22.554688 153.867188 C 22.582031 153.820312 22.617188 153.789062 22.660156 153.773438 C 22.695312 153.75 22.746094 153.738281 22.8125 153.738281 C 22.859375 153.738281 22.894531 153.742188 22.929688 153.75 L 22.929688 154.078125 C 22.863281 154.0625 22.8125 154.054688 22.765625 154.054688 C 22.660156 154.054688 22.582031 154.09375 22.53125 154.171875 C 22.484375 154.25 22.460938 154.367188 22.460938 154.523438 L 22.460938 155.25 Z M 22.074219 155.25 " fill-opacity="1" fill-rule="nonzero"/><path fill="#d10024" d="M 24.574219 154.5 C 24.574219 154.742188 24.507812 154.933594 24.375 155.074219 C 24.238281 155.207031 24.058594 155.273438 23.824219 155.273438 C 23.589844 155.273438 23.40625 155.207031 23.273438 155.074219 C 23.136719 154.933594 23.074219 154.742188 23.074219 154.5 C 23.074219 154.265625 23.136719 154.082031 23.273438 153.949219 C 23.40625 153.808594 23.589844 153.738281 23.824219 153.738281 C 24.074219 153.738281 24.261719 153.804688 24.386719 153.9375 C 24.507812 154.070312 24.574219 154.257812 24.574219 154.5 Z M 24.175781 154.5 C 24.175781 154.328125 24.144531 154.203125 24.082031 154.125 C 24.027344 154.039062 23.945312 153.996094 23.835938 153.996094 C 23.601562 153.996094 23.484375 154.164062 23.484375 154.5 C 23.484375 154.671875 23.511719 154.800781 23.566406 154.886719 C 23.628906 154.972656 23.710938 155.015625 23.8125 155.015625 C 24.050781 155.015625 24.175781 154.84375 24.175781 154.5 Z M 24.175781 154.5 " fill-opacity="1" fill-rule="nonzero"/><path fill="#d10024" d="M 24.886719 153.492188 L 24.886719 153.210938 L 25.273438 153.210938 L 25.273438 153.492188 Z M 24.875 155.835938 C 24.78125 155.835938 24.699219 155.828125 24.640625 155.824219 L 24.640625 155.554688 L 24.710938 155.554688 C 24.78125 155.554688 24.828125 155.535156 24.851562 155.507812 C 24.875 155.484375 24.886719 155.425781 24.886719 155.332031 L 24.886719 153.761719 L 25.273438 153.761719 L 25.273438 155.425781 C 25.273438 155.558594 25.238281 155.660156 25.167969 155.730469 C 25.101562 155.800781 25.003906 155.835938 24.875 155.835938 Z M 24.875 155.835938 " fill-opacity="1" fill-rule="nonzero"/><path fill="#d10024" d="M 26.277344 155.273438 C 26.046875 155.273438 25.871094 155.207031 25.75 155.074219 C 25.632812 154.941406 25.574219 154.75 25.574219 154.5 C 25.574219 154.257812 25.632812 154.070312 25.761719 153.9375 C 25.882812 153.804688 26.054688 153.738281 26.277344 153.738281 C 26.488281 153.738281 26.644531 153.808594 26.757812 153.949219 C 26.875 154.089844 26.933594 154.296875 26.933594 154.570312 L 26.933594 154.582031 L 25.984375 154.582031 C 25.984375 154.722656 26.007812 154.832031 26.066406 154.910156 C 26.117188 154.980469 26.195312 155.015625 26.289062 155.015625 C 26.429688 155.015625 26.511719 154.957031 26.546875 154.839844 L 26.910156 154.875 C 26.804688 155.140625 26.59375 155.273438 26.277344 155.273438 Z M 26.277344 153.984375 C 26.183594 153.984375 26.113281 154.015625 26.066406 154.078125 C 26.019531 154.140625 25.988281 154.226562 25.984375 154.335938 L 26.558594 154.335938 C 26.546875 154.21875 26.523438 154.132812 26.476562 154.078125 C 26.429688 154.015625 26.359375 153.984375 26.277344 153.984375 Z M 26.277344 153.984375 " fill-opacity="1" fill-rule="nonzero"/><path fill="#d10024" d="M 27.851562 155.273438 C 27.625 155.273438 27.449219 155.207031 27.324219 155.074219 C 27.199219 154.941406 27.136719 154.753906 27.136719 154.511719 C 27.136719 154.269531 27.199219 154.082031 27.324219 153.949219 C 27.449219 153.808594 27.625 153.738281 27.851562 153.738281 C 28.023438 153.738281 28.167969 153.78125 28.285156 153.867188 C 28.402344 153.953125 28.476562 154.074219 28.507812 154.230469 L 28.109375 154.253906 C 28.101562 154.175781 28.074219 154.113281 28.027344 154.066406 C 27.988281 154.019531 27.925781 153.996094 27.839844 153.996094 C 27.644531 153.996094 27.546875 154.164062 27.546875 154.5 C 27.546875 154.84375 27.648438 155.015625 27.851562 155.015625 C 27.921875 155.015625 27.980469 154.992188 28.027344 154.945312 C 28.082031 154.898438 28.113281 154.828125 28.121094 154.734375 L 28.507812 154.757812 C 28.5 154.859375 28.464844 154.949219 28.402344 155.027344 C 28.347656 155.105469 28.269531 155.167969 28.167969 155.214844 C 28.074219 155.253906 27.96875 155.273438 27.851562 155.273438 Z M 27.851562 155.273438 " fill-opacity="1" fill-rule="nonzero"/><path fill="#d10024" d="M 29.171875 155.273438 C 29.058594 155.273438 28.972656 155.242188 28.914062 155.179688 C 28.847656 155.117188 28.820312 155.023438 28.820312 154.898438 L 28.820312 154.019531 L 28.632812 154.019531 L 28.632812 153.761719 L 28.84375 153.761719 L 28.960938 153.410156 L 29.207031 153.410156 L 29.207031 153.761719 L 29.488281 153.761719 L 29.488281 154.019531 L 29.207031 154.019531 L 29.207031 154.792969 C 29.207031 154.871094 29.21875 154.925781 29.242188 154.957031 C 29.269531 154.988281 29.3125 155.003906 29.371094 155.003906 C 29.398438 155.003906 29.441406 155 29.5 154.992188 L 29.5 155.226562 C 29.40625 155.253906 29.292969 155.273438 29.171875 155.273438 Z M 29.171875 155.273438 " fill-opacity="1" fill-rule="nonzero"/><g clip-path="url(#24d34c89c0)"><g clip-path="url(#672d257f8c)"><path fill="#ffffff" d="M 2.304688 145.40625 L 60.132812 145.40625 L 60.132812 193.164062 L 2.304688 193.164062 Z M 2.304688 145.40625 " fill-opacity="1" fill-rule="nonzero"/></g></g><g clip-path="url(#74830a5a6d)"><g clip-path="url(#42cd105e4e)"><path fill="#ffffff" d="M -26.210938 136.632812 L 58.433594 136.632812 L 58.433594 187.140625 L -26.210938 187.140625 Z M -26.210938 136.632812 " fill-opacity="1" fill-rule="nonzero"/></g></g><g clip-path="url(#a1070dbbdf)"><g clip-path="url(#cfec7bc230)"><path fill="#f8f9fa" d="M -28.648438 125.101562 L 61.097656 125.101562 L 61.097656 202.199219 L -28.648438 202.199219 Z M -28.648438 125.101562 " fill-opacity="1" fill-rule="nonzero"/></g></g></svg>