<!DOCTYPE svg PUBLIC "-//W3C//DTD SVG 1.1//EN" "http://www.w3.org/Graphics/SVG/1.1/DTD/svg11.dtd">
<!-- Uploaded to: SVG Repo, www.svgrepo.com, Transformed by: SVG Repo Mixer Tools -->
<svg fill="#1e1f29" height="800px" width="800px" version="1.1" id="Layer_1" xmlns="http://www.w3.org/2000/svg" xmlns:xlink="http://www.w3.org/1999/xlink" viewBox="0 0 512 512" xml:space="preserve" stroke="#1e1f29">
<g id="SVGRepo_bgCarrier" stroke-width="0"/>
<g id="SVGRepo_tracerCarrier" stroke-linecap="round" stroke-linejoin="round"/>
<g id="SVGRepo_iconCarrier"> <g> <g> <path d="M106.667,106.667v234.666h298.667V106.667H106.667z M176.917,155.584l21.333-21.333c8.341-8.341,21.824-8.341,30.165,0 s8.341,21.824,0,30.165l-21.333,21.333c-4.16,4.16-9.621,6.251-15.083,6.251c-5.461,0-10.923-2.091-15.083-6.251 C168.576,177.408,168.576,163.925,176.917,155.584z M292.416,185.749l-64,64c-4.16,4.16-9.621,6.251-15.083,6.251 c-5.461,0-10.923-2.091-15.083-6.251c-8.341-8.341-8.341-21.824,0-30.165l64-64c8.342-8.341,21.825-8.341,30.166,0 S300.757,177.408,292.416,185.749z"/> </g> </g> <g> <g> <path d="M384,0H128c-11.797,0-21.333,9.557-21.333,21.333V64h298.667V21.333C405.333,9.557,395.797,0,384,0z"/> </g> </g> <g> <g> <path d="M106.667,384v106.667c0,11.776,9.536,21.333,21.333,21.333h256c11.797,0,21.333-9.557,21.333-21.333V384H106.667z M256,469.333c-11.776,0-21.333-9.557-21.333-21.333s9.557-21.333,21.333-21.333s21.333,9.557,21.333,21.333 S267.776,469.333,256,469.333z"/> </g> </g> </g>
</svg>